<?xml version="1.0" encoding="UTF-8"?>
<!-- Created with Inkscape (http://www.inkscape.org/) -->
<svg width="512" height="512" version="1.1" viewBox="0 0 512 512" xml:space="preserve" xmlns="http://www.w3.org/2000/svg"><defs><linearGradient id="linearGradient32514" x1="169.09" x2="484.87" y1="112.79" y2="512" gradientUnits="userSpaceOnUse"><stop stop-color="#fff" offset="0"/><stop stop-color="#fff" offset=".54498"/></linearGradient></defs><rect width="512" height="512" ry="0" fill="#282828"/><path d="m256.6 73.768c-64.942 0-117.89 52.946-117.89 117.89 0 42.457 22.634 79.78 56.451 100.54-96.128 26.89-166.83 115.19-166.83 219.8h28c0-110.77 89.496-200.27 200.27-200.27s200.27 89.496 200.27 200.27h28c0-104.61-70.702-192.91-166.83-219.8 33.817-20.761 56.451-58.084 56.451-100.54 0-64.942-52.946-117.89-117.89-117.89zm0 28c49.81 0 89.889 40.079 89.889 89.889s-40.079 89.891-89.889 89.891-89.889-40.081-89.889-89.891 40.079-89.889 89.889-89.889z" fill="url(#linearGradient32514)"/></svg>
